<?xml version="1.0" standalone="no"?>
<!DOCTYPE svg PUBLIC "-//W3C//DTD SVG 20010904//EN"
 "http://www.w3.org/TR/2001/REC-SVG-20010904/DTD/svg10.dtd">
<svg version="1.0" xmlns="http://www.w3.org/2000/svg"
 width="400.000000pt" height="400.000000pt" viewBox="0 0 400.000000 400.000000"
 preserveAspectRatio="xMidYMid meet">
<metadata>
Created by potrace 1.11, written by Peter Selinger 2001-2013
</metadata>
<g transform="translate(0.000000,400.000000) scale(0.100000,-0.100000)"
fill="#000000" stroke="none">
<path d="M1868 3895 c-2 -1 -32 -5 -68 -9 -36 -3 -76 -8 -90 -11 -14 -3 -41
-8 -60 -11 -189 -33 -411 -113 -590 -214 -150 -85 -155 -90 -191 -195 -60
-177 -111 -415 -135 -625 -3 -30 -8 -68 -10 -85 -2 -16 -7 -84 -10 -150 l-5
-120 27 65 c15 36 36 77 46 93 11 15 17 27 13 27 -10 0 95 152 149 215 28 33
152 162 276 286 226 226 392 369 550 473 47 30 90 59 95 63 20 16 161 98 250
145 69 37 84 48 65 49 -48 4 -309 7 -312 4z"/>
<path d="M2265 3822 c-55 -27 -138 -70 -185 -97 -99 -56 -330 -207 -353 -229
-9 -9 -20 -16 -25 -16 -6 0 -12 -3 -14 -8 -1 -4 -23 -23 -48 -42 -53 -41 -87
-69 -110 -90 -9 -8 -35 -32 -58 -52 -42 -38 -45 -50 -7 -25 33 21 143 55 255
78 128 26 340 33 450 14 41 -7 158 -16 260 -19 102 -3 196 -8 210 -10 14 -3
48 -7 75 -11 75 -9 177 -24 205 -30 14 -3 41 -8 60 -11 68 -12 276 -66 367
-95 51 -17 95 -30 98 -30 2 0 20 -6 40 -15 19 -8 35 -11 35 -8 0 4 -17 28 -37
53 -156 192 -296 316 -496 444 -104 67 -317 166 -402 188 -36 9 -184 48 -205
54 -8 3 -60 -17 -115 -43z"/>
<path d="M673 3363 c-54 -54 -116 -120 -138 -148 -22 -27 -43 -51 -47 -53 -5
-2 -8 -10 -8 -17 0 -7 -4 -15 -8 -17 -18 -7 -117 -170 -172 -283 -68 -139
-107 -247 -145 -397 l-26 -108 47 -87 c56 -104 108 -190 177 -293 47 -70 155
-219 167 -230 3 -3 18 -22 34 -43 42 -58 189 -205 180 -182 -49 132 -64 183
-90 310 -7 36 -17 383 -18 625 -1 208 11 360 41 540 6 36 22 131 27 156 8 42
56 230 70 277 8 26 13 47 11 47 -2 0 -48 -44 -102 -97z"/>
<path d="M2560 3246 c0 -2 42 -27 93 -56 201 -115 381 -293 495 -492 17 -29
58 -84 92 -122 170 -190 383 -492 463 -656 10 -19 22 -42 27 -50 6 -8 37 -71
70 -140 33 -69 59 -118 58 -110 -1 8 2 31 5 50 30 158 38 308 24 480 -20 250
-80 459 -203 707 l-65 132 -82 31 c-176 67 -501 161 -607 175 -14 2 -68 11
-120 19 -52 8 -124 18 -160 21 -36 4 -71 8 -77 10 -7 3 -13 3 -13 1z"/>
<path d="M2525 2628 c-76 -9 -167 -42 -223 -79 -24 -16 -45 -29 -48 -29 -7 0
-93 -90 -119 -125 -44 -58 -89 -154 -102 -215 -39 -187 -5 -367 97 -515 77
-113 209 -205 327 -230 161 -35 300 -4 421 92 l42 34 0 -65 c0 -36 3 -66 8
-66 4 -1 46 -2 95 -3 81 -2 87 -1 88 18 0 11 1 151 2 310 l2 290 -213 -1
c-116 0 -215 -4 -219 -7 -3 -4 -6 -42 -6 -85 l0 -77 94 -2 c166 -2 149 3 149
-47 0 -43 -3 -47 -65 -99 -80 -68 -156 -99 -245 -98 -75 0 -115 10 -174 45
-121 71 -190 216 -181 381 6 118 42 200 121 279 123 125 324 123 455 -5 25
-24 50 -53 56 -63 10 -18 15 -16 74 27 35 26 75 55 88 65 l24 19 -30 44 c-105
152 -309 233 -518 207z"/>
<path d="M1307 2615 c-152 -42 -279 -140 -354 -273 -112 -199 -108 -449 11
-639 67 -107 161 -189 283 -245 61 -28 79 -32 173 -35 192 -5 343 52 453 171
43 47 81 106 67 106 -4 0 -47 23 -95 50 -92 53 -105 58 -105 37 0 -29 -73 -97
-136 -128 -129 -64 -282 -36 -381 68 -77 82 -115 182 -115 301 2 215 116 363
307 396 43 8 151 -11 197 -35 42 -21 118 -96 118 -116 0 -27 22 -20 101 34 46
31 85 57 87 58 11 9 -29 67 -81 119 -69 68 -147 111 -242 132 -76 17 -225 16
-288 -1z"/>
<path d="M3296 2345 c8 -27 17 -68 19 -90 3 -22 8 -53 11 -68 3 -16 7 -77 9
-135 2 -95 -2 -151 -19 -272 -7 -46 -45 -189 -56 -210 -9 -16 -13 -52 -25
-210 -3 -41 -8 -82 -10 -90 -2 -8 -7 -39 -10 -68 -5 -45 -56 -298 -70 -352
-34 -130 -72 -246 -126 -388 -15 -39 -22 -69 -16 -65 17 10 101 67 107 73 3 3
32 25 64 49 57 42 200 180 259 249 151 177 281 400 355 613 l30 85 -29 75
c-88 221 -263 529 -427 747 -85 115 -83 113 -66 57z"/>
<path d="M108 2148 c-10 -67 0 -346 16 -443 41 -246 118 -463 247 -692 22 -39
29 -43 119 -72 91 -29 263 -74 325 -85 92 -17 206 -36 250 -41 28 -4 61 -8 75
-11 14 -2 79 -6 145 -10 l120 -5 -60 33 c-156 86 -277 188 -404 338 -30 35
-71 78 -91 95 -56 48 -242 235 -288 290 -24 28 -53 61 -65 75 -12 14 -33 41
-47 59 -14 18 -29 38 -35 44 -50 59 -179 252 -250 375 -26 45 -49 82 -50 82
-2 0 -5 -15 -7 -32z"/>
<path d="M3130 1302 c0 -5 -27 -45 -60 -91 -64 -87 -202 -229 -251 -258 -16
-9 -29 -21 -29 -25 0 -4 -7 -8 -15 -8 -8 0 -15 -4 -15 -10 0 -5 -5 -10 -11
-10 -6 0 -29 -13 -52 -28 -23 -16 -66 -41 -96 -56 -30 -16 -98 -65 -150 -110
-53 -46 -121 -101 -151 -124 -30 -23 -65 -50 -78 -60 -77 -60 -313 -199 -469
-278 l-183 -91 78 -13 c42 -7 86 -14 97 -16 25 -5 235 -18 290 -18 130 1 300
24 452 63 83 21 259 85 278 101 5 4 12 8 15 8 19 -3 88 45 99 69 72 157 173
470 209 648 39 195 57 315 48 315 -3 0 -6 -4 -6 -8z"/>
<path d="M490 845 c0 -18 221 -243 303 -309 146 -116 352 -235 522 -300 39
-15 80 -31 92 -36 26 -11 78 8 262 97 200 97 366 198 564 344 45 34 83 62 85
64 2 1 -25 -3 -60 -11 -159 -34 -401 -38 -518 -8 -14 4 -79 8 -145 10 -173 4
-406 14 -435 18 -14 2 -50 7 -80 11 -80 9 -104 13 -215 35 -55 10 -111 21
-125 24 -25 4 -190 48 -229 61 -12 3 -21 4 -21 0z"/>
</g>
</svg>
